<?xml version="1.0" encoding="UTF-8" standalone="no"?>
<svg width="150px" height="55px" viewBox="0 0 150 55" version="1.1" xmlns="http://www.w3.org/2000/svg" xmlns:xlink="http://www.w3.org/1999/xlink" xmlns:sketch="http://www.bohemiancoding.com/sketch/ns">
    <!-- Generator: Sketch 3.4.4 (17249) - http://www.bohemiancoding.com/sketch -->
    <title>logo</title>
    <desc>Created with Sketch.</desc>
    <defs>
        <path id="path-1" d="M0,0.594757319 L148.351385,0.594757319 L148.351385,54.8639773 L0,54.8639773 L0,0.594757319 Z"></path>
    </defs>
    <g id="Page-1" stroke="none" stroke-width="1" fill="none" fill-rule="evenodd" sketch:type="MSPage">
        <g id="Research" sketch:type="MSArtboardGroup" transform="translate(-59.000000, -60.000000)">
            <g id="header" sketch:type="MSLayerGroup">
                <g id="header-wit" transform="translate(59.000000, 60.000000)">
                    <g id="logo">
                        <g transform="translate(0.882132, 0.000000)">
                            <path d="M0,47.6251128 L148.351385,47.6251128 L148.351385,7.49966715 L0,7.49966715 L0,47.6251128 Z" id="Fill-1" fill="#000000" sketch:type="MSShapeGroup"></path>
                            <path d="M22.9652754,20.5254885 C21.9628745,19.2373778 19.9588643,18.6330789 18.4346764,18.6330789 C16.6713692,18.6330789 14.2255425,19.4385457 14.2255425,21.5718798 C14.2255425,26.7656696 27.2947608,23.4245329 27.2947608,33.4089816 C27.2947608,39.7692274 22.2035774,42.7891315 16.3506959,42.7891315 C12.7021464,42.7891315 9.49541343,41.7013935 6.80888381,39.2062752 L11.2587207,34.2939614 C12.5414138,35.9852032 14.6261862,36.9910428 16.7109585,36.9910428 C18.7561415,36.9910428 21.0404439,36.0257548 21.0404439,34.0116903 C21.0404439,28.7781439 7.7313144,31.596085 7.7313144,22.0958705 C7.7313144,16.0163057 12.9832304,12.8365804 18.5550279,12.8365804 C21.7625526,12.8365804 24.8489341,13.6818037 27.2543797,15.8151378 L22.9652754,20.5254885 Z" id="Fill-2" fill="#FEFEFE" sketch:type="MSShapeGroup"></path>
                            <path d="M45.1568969,37.1684363 C50.3035053,37.1684363 53.670179,33.4376858 53.670179,28.3075064 C53.670179,23.1781221 50.3035053,19.4473716 45.1568969,19.4473716 C40.0102884,19.4473716 36.6436147,23.1781221 36.6436147,28.3075064 C36.6436147,33.4376858 40.0102884,37.1684363 45.1568969,37.1684363 M45.1568969,13.851246 C53.7089765,13.851246 59.9395399,19.486333 59.9395399,28.3075064 C59.9395399,37.1294749 53.7089765,42.7637668 45.1568969,42.7637668 C36.6048172,42.7637668 30.3742538,37.1294749 30.3742538,28.3075064 C30.3742538,19.486333 36.6048172,13.851246 45.1568969,13.851246" id="Fill-4" fill="#FEFEFE" sketch:type="MSShapeGroup"></path>
                            <path d="M69.3469859,13.5607054 L78.8080358,13.5607054 L85.3434368,32.1603888 L85.4226154,32.1603888 L91.9976056,13.5607054 L101.418274,13.5607054 L101.418274,42.0637343 L95.1647493,42.0637343 L95.1647493,20.2032223 L95.0839871,20.2032223 L87.6269474,42.0637343 L82.857229,42.0637343 L75.6812733,20.2032223 L75.6005111,20.2032223 L75.6005111,42.0637343 L69.3469859,42.0637343 L69.3469859,13.5607054 Z" id="Fill-6" fill="#FEFEFE" sketch:type="MSShapeGroup"></path>
                            <path d="M125.693322,37.1684363 C130.839931,37.1684363 134.206604,33.4376858 134.206604,28.3075064 C134.206604,23.1781221 130.839931,19.4473716 125.693322,19.4473716 C120.546714,19.4473716 117.18004,23.1781221 117.18004,28.3075064 C117.18004,33.4376858 120.546714,37.1684363 125.693322,37.1684363 M125.693322,13.851246 C134.245402,13.851246 140.475965,19.486333 140.475965,28.3075064 C140.475965,37.1294749 134.245402,42.7637668 125.693322,42.7637668 C117.141242,42.7637668 110.910679,37.1294749 110.910679,28.3075064 C110.910679,19.486333 117.141242,13.851246 125.693322,13.851246" id="Fill-8" fill="#FEFEFE" sketch:type="MSShapeGroup"></path>
                            <mask id="mask-2" sketch:name="Clip 11" fill="white">
                                <use xlink:href="#path-1"></use>
                            </mask>
                            <g id="Clip-11"></g>
                            <path d="M65.1924852,47.5463949 L105.564066,47.5463949 L105.564066,7.91154455 L65.1924852,7.91154455 L65.1924852,47.5463949 Z M112.850871,54.8639773 L57.9064712,54.8639773 L57.9064712,0.594757319 L112.850871,0.594757319 L112.850871,54.8639773 Z" id="Fill-10" fill="#ED1C23" sketch:type="MSShapeGroup" mask="url(#mask-2)"></path>
                        </g>
                    </g>
                </g>
            </g>
        </g>
    </g>
</svg>